<?xml version="1.0" encoding="UTF-8"?>
<svg xmlns="http://www.w3.org/2000/svg" xmlns:xlink="http://www.w3.org/1999/xlink" width="16pt" height="16pt" viewBox="0 0 16 16" version="1.1">
<g id="surface1">
<path style=" stroke:none;fill-rule:nonzero;fill:rgb(30.980392%,98.039216%,48.235294%);fill-opacity:1;" d="M 8.320312 15.007812 L 8.65625 13.824219 C 8.714844 13.625 8.878906 13.476562 9.082031 13.433594 C 9.285156 13.394531 9.492188 13.46875 9.621094 13.632812 L 10.386719 14.597656 C 10.480469 14.714844 10.636719 14.753906 10.773438 14.699219 C 10.910156 14.640625 10.992188 14.5 10.976562 14.355469 L 10.835938 13.128906 C 10.8125 12.925781 10.90625 12.722656 11.078125 12.605469 C 11.25 12.492188 11.472656 12.484375 11.652344 12.582031 L 12.730469 13.183594 C 12.859375 13.253906 13.023438 13.230469 13.125 13.125 C 13.230469 13.023438 13.253906 12.859375 13.183594 12.730469 L 12.582031 11.652344 C 12.484375 11.472656 12.492188 11.25 12.605469 11.078125 C 12.722656 10.90625 12.921875 10.8125 13.128906 10.835938 L 14.355469 10.976562 C 14.5 10.992188 14.640625 10.910156 14.699219 10.773438 C 14.753906 10.636719 14.714844 10.480469 14.597656 10.386719 L 13.632812 9.621094 C 13.46875 9.492188 13.394531 9.285156 13.433594 9.082031 C 13.472656 8.878906 13.625 8.714844 13.824219 8.65625 L 15.007812 8.320312 C 15.152344 8.277344 15.25 8.148438 15.25 8 C 15.25 7.851562 15.152344 7.722656 15.007812 7.679688 L 13.824219 7.34375 C 13.625 7.285156 13.472656 7.121094 13.433594 6.917969 C 13.394531 6.714844 13.46875 6.507812 13.632812 6.378906 L 14.597656 5.613281 C 14.714844 5.519531 14.753906 5.363281 14.699219 5.226562 C 14.640625 5.089844 14.5 5.007812 14.355469 5.023438 L 13.128906 5.164062 C 12.921875 5.1875 12.722656 5.09375 12.605469 4.921875 C 12.492188 4.75 12.484375 4.527344 12.582031 4.347656 L 13.183594 3.269531 C 13.253906 3.140625 13.230469 2.976562 13.125 2.875 C 13.023438 2.769531 12.859375 2.746094 12.730469 2.816406 L 11.652344 3.417969 C 11.472656 3.515625 11.25 3.507812 11.078125 3.394531 C 10.90625 3.277344 10.8125 3.078125 10.835938 2.871094 L 10.976562 1.644531 C 10.992188 1.5 10.910156 1.359375 10.773438 1.300781 C 10.636719 1.246094 10.480469 1.285156 10.386719 1.402344 L 9.621094 2.367188 C 9.492188 2.53125 9.285156 2.605469 9.082031 2.566406 C 8.878906 2.527344 8.714844 2.375 8.65625 2.175781 L 8.320312 0.992188 C 8.277344 0.847656 8.148438 0.75 8 0.75 C 7.851562 0.75 7.722656 0.847656 7.679688 0.992188 L 7.34375 2.175781 C 7.285156 2.375 7.121094 2.527344 6.917969 2.566406 C 6.714844 2.605469 6.507812 2.53125 6.378906 2.367188 L 5.613281 1.402344 C 5.519531 1.285156 5.363281 1.246094 5.226562 1.300781 C 5.089844 1.359375 5.007812 1.5 5.023438 1.644531 L 5.164062 2.871094 C 5.1875 3.078125 5.09375 3.277344 4.921875 3.394531 C 4.75 3.507812 4.527344 3.515625 4.347656 3.417969 L 3.269531 2.816406 C 3.140625 2.746094 2.976562 2.769531 2.875 2.875 C 2.769531 2.976562 2.746094 3.140625 2.816406 3.269531 L 3.417969 4.347656 C 3.515625 4.527344 3.507812 4.75 3.394531 4.921875 C 3.277344 5.09375 3.078125 5.1875 2.871094 5.164062 L 1.644531 5.023438 C 1.5 5.007812 1.359375 5.089844 1.300781 5.226562 C 1.246094 5.363281 1.285156 5.519531 1.402344 5.613281 L 2.367188 6.378906 C 2.53125 6.507812 2.605469 6.714844 2.566406 6.917969 C 2.527344 7.121094 2.375 7.285156 2.175781 7.34375 L 0.992188 7.679688 C 0.847656 7.722656 0.75 7.851562 0.75 8 C 0.75 8.148438 0.847656 8.277344 0.992188 8.320312 L 2.175781 8.65625 C 2.375 8.714844 2.527344 8.878906 2.566406 9.082031 C 2.605469 9.285156 2.53125 9.492188 2.367188 9.621094 L 1.402344 10.386719 C 1.285156 10.480469 1.246094 10.636719 1.300781 10.773438 C 1.359375 10.910156 1.5 10.992188 1.644531 10.976562 L 2.871094 10.835938 C 3.078125 10.8125 3.277344 10.90625 3.394531 11.078125 C 3.507812 11.25 3.515625 11.472656 3.417969 11.652344 L 2.816406 12.730469 C 2.746094 12.859375 2.769531 13.023438 2.875 13.125 C 2.976562 13.230469 3.140625 13.253906 3.269531 13.183594 L 4.347656 12.582031 C 4.527344 12.484375 4.75 12.492188 4.921875 12.605469 C 5.09375 12.722656 5.1875 12.921875 5.164062 13.128906 L 5.023438 14.355469 C 5.007812 14.5 5.089844 14.640625 5.226562 14.699219 C 5.363281 14.753906 5.519531 14.714844 5.613281 14.597656 L 6.378906 13.632812 C 6.507812 13.46875 6.714844 13.394531 6.917969 13.433594 C 7.121094 13.472656 7.285156 13.625 7.34375 13.824219 L 7.679688 15.007812 C 7.722656 15.152344 7.851562 15.25 8 15.25 C 8.148438 15.25 8.277344 15.152344 8.320312 15.007812 Z M 8.320312 15.007812 "/>
<path style=" stroke:none;fill-rule:nonzero;fill:rgb(23.529412%,87.058824%,55.294118%);fill-opacity:1;" d="M 4.785156 7.742188 L 3.554688 6.765625 C 3.351562 6.601562 3.28125 6.328125 3.378906 6.085938 C 3.480469 5.847656 3.726562 5.703125 3.984375 5.730469 L 5.542969 5.910156 L 5.488281 6.40625 L 3.925781 6.226562 C 3.890625 6.222656 3.855469 6.246094 3.84375 6.277344 C 3.828125 6.3125 3.839844 6.351562 3.867188 6.371094 L 5.097656 7.347656 Z M 4.785156 7.742188 "/>
<path style=" stroke:none;fill-rule:nonzero;fill:rgb(23.529412%,87.058824%,55.294118%);fill-opacity:1;" d="M 3.917969 10.273438 C 3.671875 10.273438 3.449219 10.117188 3.367188 9.882812 C 3.289062 9.648438 3.363281 9.390625 3.554688 9.234375 L 4.785156 8.257812 L 5.097656 8.652344 L 3.867188 9.628906 C 3.839844 9.648438 3.828125 9.6875 3.84375 9.722656 C 3.855469 9.753906 3.890625 9.777344 3.925781 9.773438 L 5.488281 9.59375 L 5.542969 10.089844 L 3.984375 10.269531 C 3.960938 10.269531 3.941406 10.273438 3.917969 10.273438 Z M 3.917969 10.273438 "/>
<path style=" stroke:none;fill-rule:nonzero;fill:rgb(23.529412%,87.058824%,55.294118%);fill-opacity:1;" d="M 6.308594 12.664062 C 6.230469 12.664062 6.15625 12.648438 6.085938 12.621094 C 5.847656 12.519531 5.703125 12.273438 5.730469 12.015625 L 5.910156 10.457031 L 6.40625 10.511719 L 6.226562 12.074219 C 6.222656 12.109375 6.246094 12.144531 6.277344 12.15625 C 6.3125 12.171875 6.351562 12.160156 6.371094 12.132812 L 7.347656 10.902344 L 7.742188 11.214844 L 6.765625 12.445312 C 6.652344 12.582031 6.484375 12.664062 6.308594 12.664062 Z M 6.308594 12.664062 "/>
<path style=" stroke:none;fill-rule:nonzero;fill:rgb(23.529412%,87.058824%,55.294118%);fill-opacity:1;" d="M 9.691406 12.664062 C 9.515625 12.664062 9.347656 12.582031 9.234375 12.445312 L 8.257812 11.214844 L 8.652344 10.902344 L 9.628906 12.132812 C 9.648438 12.160156 9.6875 12.171875 9.722656 12.15625 C 9.753906 12.144531 9.777344 12.109375 9.773438 12.074219 L 9.59375 10.511719 L 10.089844 10.457031 L 10.269531 12.015625 C 10.296875 12.273438 10.152344 12.519531 9.914062 12.621094 C 9.84375 12.648438 9.769531 12.664062 9.691406 12.664062 Z M 9.691406 12.664062 "/>
<path style=" stroke:none;fill-rule:nonzero;fill:rgb(23.529412%,87.058824%,55.294118%);fill-opacity:1;" d="M 12.082031 10.273438 C 12.058594 10.273438 12.039062 10.269531 12.015625 10.269531 L 10.457031 10.089844 L 10.511719 9.59375 L 12.074219 9.773438 C 12.109375 9.777344 12.144531 9.753906 12.15625 9.722656 C 12.171875 9.6875 12.160156 9.648438 12.132812 9.628906 L 10.902344 8.652344 L 11.214844 8.257812 L 12.445312 9.234375 C 12.636719 9.390625 12.710938 9.648438 12.632812 9.882812 C 12.550781 10.117188 12.328125 10.273438 12.082031 10.273438 Z M 12.082031 10.273438 "/>
<path style=" stroke:none;fill-rule:nonzero;fill:rgb(23.529412%,87.058824%,55.294118%);fill-opacity:1;" d="M 11.214844 7.742188 L 10.902344 7.347656 L 12.132812 6.371094 C 12.160156 6.351562 12.171875 6.3125 12.15625 6.277344 C 12.144531 6.246094 12.109375 6.222656 12.074219 6.226562 L 10.511719 6.40625 L 10.457031 5.910156 L 12.015625 5.730469 C 12.273438 5.703125 12.519531 5.847656 12.621094 6.085938 C 12.71875 6.328125 12.648438 6.601562 12.445312 6.765625 Z M 11.214844 7.742188 "/>
<path style=" stroke:none;fill-rule:nonzero;fill:rgb(23.529412%,87.058824%,55.294118%);fill-opacity:1;" d="M 10.089844 5.542969 L 9.59375 5.488281 L 9.773438 3.925781 C 9.777344 3.890625 9.753906 3.855469 9.722656 3.84375 C 9.6875 3.828125 9.648438 3.839844 9.628906 3.867188 L 8.652344 5.097656 L 8.257812 4.785156 L 9.234375 3.554688 C 9.398438 3.351562 9.671875 3.28125 9.914062 3.378906 C 10.152344 3.480469 10.296875 3.726562 10.269531 3.984375 Z M 10.089844 5.542969 "/>
<path style=" stroke:none;fill-rule:nonzero;fill:rgb(23.529412%,87.058824%,55.294118%);fill-opacity:1;" d="M 5.910156 5.542969 L 5.730469 3.984375 C 5.703125 3.726562 5.847656 3.480469 6.085938 3.378906 C 6.328125 3.28125 6.601562 3.351562 6.765625 3.554688 L 7.742188 4.785156 L 7.347656 5.097656 L 6.371094 3.867188 C 6.351562 3.839844 6.3125 3.828125 6.277344 3.84375 C 6.246094 3.855469 6.222656 3.890625 6.226562 3.925781 L 6.40625 5.488281 Z M 5.910156 5.542969 "/>
<path style=" stroke:none;fill-rule:nonzero;fill:rgb(23.529412%,87.058824%,55.294118%);fill-opacity:1;" d="M 8.367188 6.820312 L 8.078125 5.808594 C 8.066406 5.773438 8.035156 5.75 8 5.75 C 7.964844 5.75 7.929688 5.773438 7.921875 5.808594 L 7.632812 6.820312 L 7.152344 6.679688 L 7.441406 5.671875 C 7.511719 5.421875 7.742188 5.25 8 5.25 C 8.257812 5.25 8.488281 5.421875 8.558594 5.671875 L 8.847656 6.679688 Z M 8.367188 6.820312 "/>
<path style=" stroke:none;fill-rule:nonzero;fill:rgb(23.529412%,87.058824%,55.294118%);fill-opacity:1;" d="M 6.679688 8.847656 L 5.671875 8.558594 C 5.421875 8.488281 5.25 8.257812 5.25 8 C 5.25 7.742188 5.421875 7.511719 5.671875 7.441406 L 6.679688 7.152344 L 6.820312 7.632812 L 5.808594 7.921875 C 5.773438 7.933594 5.75 7.964844 5.75 8 C 5.75 8.035156 5.773438 8.066406 5.808594 8.078125 L 6.820312 8.367188 Z M 6.679688 8.847656 "/>
<path style=" stroke:none;fill-rule:nonzero;fill:rgb(23.529412%,87.058824%,55.294118%);fill-opacity:1;" d="M 8 10.75 C 7.742188 10.75 7.511719 10.578125 7.441406 10.328125 L 7.152344 9.320312 L 7.632812 9.179688 L 7.921875 10.191406 C 7.933594 10.226562 7.964844 10.25 8 10.25 C 8.035156 10.25 8.070312 10.226562 8.078125 10.191406 L 8.367188 9.179688 L 8.847656 9.320312 L 8.558594 10.328125 C 8.488281 10.578125 8.257812 10.75 8 10.75 Z M 8 10.75 "/>
<path style=" stroke:none;fill-rule:nonzero;fill:rgb(23.529412%,87.058824%,55.294118%);fill-opacity:1;" d="M 9.320312 8.847656 L 9.179688 8.367188 L 10.191406 8.078125 C 10.226562 8.066406 10.25 8.035156 10.25 8 C 10.25 7.964844 10.226562 7.933594 10.191406 7.921875 L 9.179688 7.632812 L 9.320312 7.152344 L 10.328125 7.441406 C 10.578125 7.511719 10.75 7.742188 10.75 8 C 10.75 8.257812 10.578125 8.488281 10.328125 8.558594 Z M 9.320312 8.847656 "/>
</g>
</svg>
